# xmcd CD database file
#
# Track frame offsets:
#	150
#	19261
#	33355
#	47478
#	63331
#	81719
#	93131
#	111608
#	129013
#	143074
#	158102
#	178941
#	193605
#	214227
#	228103
#	247238
#	267709
#	291875
#	309495
#	326342
#	334788
#
# Disc length: 4736 seconds
#
# Revision: 0
# Processed by: cddbd v1.5.2PL0 Copyright (c) Steve Scherf et al.
# Submitted via: CDex 1.60beta1
#
DISCID=37127e15
DTITLE=Michael Bubble - Crazy Love (Hollywood Edition)
DYEAR=2010
DGENRE=Jazz
TTITLE0=Cry Me A River
TTITLE1=All Of Me
TTITLE2=Georgia On My Mind
TTITLE3=Crazy Love
TTITLE4=Haven't Met You Yet
TTITLE5=All I Do Is Dream of You
TTITLE6=Hold On
TTITLE7=Heartache Tonight
TTITLE8=You're Nobody Till Somebody Loves You
TTITLE9=Bay You've Got What It Takes
TTITLE10=At This Moment
TTITLE11=Stardust With Naturally
TTITLE12=Whatever It Takes (with Ron Sexsmith)
TTITLE13=Somekind of Wonderful
TTITLE14=Hollywood
TTITLE15=At This Moment (Live)
TTITLE16=Haven't Met You Yet (Live)
TTITLE17=End of May
TTITLE18=Me and Mrs Jones (Live)
TTITLE19=Twist and Shout (Live)
TTITLE20=Best of Me
EXTD=YEAR: 2010
EXTT0=
EXTT1=
EXTT2=
EXTT3=
EXTT4=
EXTT5=
EXTT6=
EXTT7=
EXTT8=
EXTT9=
EXTT10=
EXTT11=
EXTT12=
EXTT13=
EXTT14=
EXTT15=
EXTT16=
EXTT17=
EXTT18=
EXTT19=
EXTT20=
PLAYORDER=
